<?xml version="1.0" encoding="utf-8" ?><svg xmlns="http://www.w3.org/2000/svg" xmlns:xlink="http://www.w3.org/1999/xlink" width="1024" height="1024" viewBox="0 0 1024 1024"><path fill="#73CEBD" d="M339.977 683.044C344.288 681.902 349.575 681.168 353.816 679.844C435.828 652.325 456.628 541.447 478.9 468.996C507.593 375.656 551.414 275.779 653.422 245.764C698.349 232.545 750.041 236.616 791.206 259.652C821.779 276.825 844.307 305.407 853.862 339.146C862.167 369.143 859.011 403.741 843.45 430.954C828.94 455.639 808.195 473.899 780.509 482.026C746.959 491.875 707.103 480.993 696.492 444.543C694.767 438.616 694.163 423.654 697.341 418.325L698.039 418.278C700.571 421.111 700.914 425.088 702.885 427.649C713.347 441.079 731.86 444.401 745.686 433.817C755.275 426.478 757.482 420.034 759.244 408.561C759.653 398.093 756.121 390.209 748.996 382.524C739.641 372.427 731.862 371.035 718.828 370.735C696.873 369.77 678.772 388.494 669.228 406.523C667.153 410.443 666.519 418.01 661.414 418.033C637.102 418.141 616.121 440.957 602.48 458.902C591.476 473.379 581.511 487.323 573.445 503.506C570.099 510.483 567.442 519.421 564.959 526.835C551.99 565.547 556.645 606.355 548.635 646.076C539.546 691.15 520.033 731.997 499.34 772.718C497.33 776.681 495.15 781.792 492.893 785.459C486.331 785.717 479.283 785.331 472.627 785.325L432.167 785.442L406.706 785.387C401.696 785.409 396.588 785.771 391.622 785.312C388.528 781.648 384.935 772.887 382.596 768.213L366.548 736.557C360.786 724.726 354.311 712.845 348.601 700.945C345.741 694.985 342.461 689.178 339.977 683.044ZM745.394 313.698C732.196 310.255 728.124 309.287 714.767 313.326C726.492 316.87 731.134 319.354 741.958 323.68C745.022 325.767 748.074 327.871 751.114 329.993L754.861 333.116C763.102 341.578 766.557 346.191 772.702 356.072C774.74 360.272 776.053 363.559 777.739 367.923C779.409 374.727 780.463 384.443 784.74 389.488C785.633 390.916 786.61 391.764 788.32 391.998C794.335 390.776 795.967 380.207 795.322 375.088C794.602 370.74 793.59 366.898 796.283 362.974C798.804 359.3 803.27 359.893 806.247 362.587C814.107 369.698 815.407 380.334 816.967 390.201L817.159 398.048C816.923 400.346 816.689 402.552 816.549 404.862C815.374 411.575 814.053 417.736 812.57 424.393C817.643 421.202 820.313 417.972 823.577 413.095C829.192 402.778 834.518 390.657 834.729 378.863C835.096 358.397 832.851 339.737 822.064 321.815C820.037 318.447 817.95 314.219 815.381 311.338C809.834 301.465 793.496 288.412 784.044 282.286C780.85 280.426 777.367 278.288 774.037 276.767C769.387 273.893 760.818 270.431 755.514 269.195C751.462 267.085 735.136 263.603 730.098 263.355L729.266 263.106C708.166 257.986 661.114 264.826 641.927 275.619C632.455 279.753 623.356 284.694 614.731 290.387L608.638 294.878C596.178 304.497 579.336 319.385 570.261 332.44C568.032 334.963 567.357 335.995 565.579 338.803C563.6 341.121 562.576 342.598 560.879 345.104C557.784 349.436 555.634 353.174 553.145 357.848C552.665 358.749 550.185 363.59 549.765 364.101C548.982 365.555 546.659 369.128 546.938 370.297L547.189 370.338C550.358 364.858 561.523 352.934 566.256 347.631C566.675 347.358 574.675 338.8 575.608 337.824C586.46 327.681 598.124 318.443 610.482 310.202C618.709 305.017 628.846 299.706 637.595 295.348C640.204 294.584 643.072 293.182 645.589 292.06L649.522 290.646C650.392 290.429 651.044 290.158 651.886 289.85C665.027 286.205 682.481 281.483 696.251 281.772C710.139 282.064 729.549 286.587 741.632 293.577C746.019 296.115 753.719 300.595 755.196 305.989C756.514 313.794 751.104 314.642 745.394 313.698ZM776.494 453.943L779.208 452.505L780.515 451.453C782.98 449.726 784.016 448.291 785.327 445.638C789.39 439.292 785.253 430.99 776.871 436.702C774.473 438.322 772.411 440.045 770.661 442.382L769.064 444.353L767.259 446.868C761.734 454.298 769.199 457.09 776.494 453.943Z"/><path fill="#37A0A2" d="M655.172 360.009C628.834 365.456 605.656 379.489 586.022 397.518C584.833 398.61 582.155 402.061 581.084 402.161C582.369 398.919 590.153 388.635 592.313 385.821C613.463 358.522 646.223 335.83 680.914 331.795C719.584 327.297 758.85 350.957 762.095 391.788C762.446 396.199 763.017 405.605 760.2 409.055L759.244 408.561C759.653 398.093 756.121 390.209 748.996 382.524C739.641 372.427 731.862 371.035 718.828 370.735C696.873 369.77 678.772 388.494 669.228 406.523C667.153 410.443 666.519 418.01 661.414 418.033C637.102 418.141 616.121 440.957 602.48 458.902C591.476 473.379 581.511 487.323 573.445 503.506C570.099 510.483 567.442 519.421 564.959 526.835C551.99 565.547 556.645 606.355 548.635 646.076C539.546 691.15 520.033 731.997 499.34 772.718C497.33 776.681 495.15 781.792 492.893 785.459C486.331 785.717 479.283 785.331 472.627 785.325L432.167 785.442L406.706 785.387C401.696 785.409 396.588 785.771 391.622 785.312C388.528 781.648 384.935 772.887 382.596 768.213L366.548 736.557C368.945 735.137 377.606 734.646 381.295 733.87C398.833 730.126 415.229 722.263 429.128 710.929C460.846 685.372 481.874 645.989 496.727 608.678C504.327 588.804 510.808 568.122 518.397 548.263C542.127 486.165 573.069 423.071 625.377 380.005C634.926 372.143 644.427 366.124 655.172 360.009Z"/><path fill="#EDF6F6" fill-opacity="0.074509807" d="M641.927 275.619C661.114 264.826 708.166 257.986 729.266 263.106C727.807 263.359 726.665 263.553 725.219 263.937L725.174 264.508C726.838 265.703 729.08 266.742 731.167 266.391C730.683 265.257 730.31 264.565 730.098 263.355C735.136 263.603 751.462 267.085 755.514 269.195L755.364 270.288L755.925 271.012C755.527 272.96 754.887 275.169 755.183 277.084L755.906 277.677C756.366 274.937 755.745 273.455 756.99 271.303C759.143 270.39 767.19 273.368 768.363 275.585C767.973 276.566 767.91 276.711 767.343 277.598C769.298 278.419 770.054 276.399 774.037 276.767C777.367 278.288 780.85 280.426 784.044 282.286C783.445 285.37 781.977 285.162 786.129 288.201L786.964 288.016L787.706 286.523C792.066 286.186 814.826 311.299 815.381 311.338C817.95 314.219 820.037 318.447 822.064 321.815C832.851 339.737 835.096 358.397 834.729 378.863C834.518 390.657 829.192 402.778 823.577 413.095C821.792 411.433 821.102 408.292 818.844 406.862C817.925 406.28 817.933 406.269 817.204 405.532L816.549 404.862C816.689 402.552 816.923 400.346 817.159 398.048L817.676 397.788L818.165 398.796C819.528 398.4 818.886 398.662 820.022 397.528C820.936 394.552 819.295 391.938 816.967 390.201C815.407 380.334 814.107 369.698 806.247 362.587C803.27 359.893 798.804 359.3 796.283 362.974C793.59 366.898 794.602 370.74 795.322 375.088C793.657 379.157 784.311 382.753 784.74 389.488C780.463 384.443 779.409 374.727 777.739 367.923C778.326 367.739 777.947 367.831 778.986 367.793L779.907 367.764C781.54 366.777 781.491 366.836 782.692 365.365C782.645 362.642 781.253 362.609 780.117 358.995C780.469 357.069 780.129 358.007 781.705 356.28C779.784 355.852 778.101 355.342 776.213 354.783L777.783 354.241L778.064 353.418L777.354 352.406C775.331 351.704 776.327 351.741 774.258 352.292C772.771 353.941 773.224 353.567 772.702 356.072C766.557 346.191 763.102 341.578 754.861 333.116C756.49 332.879 757.099 332.808 758.708 332.279C757.245 328.357 759.194 327.689 762.019 326.268L762.216 325.447C758.6 322.935 756.074 326.787 754.905 329.695C753.948 329.571 753.492 329.438 752.589 329.139L751.114 329.993C748.074 327.871 745.022 325.767 741.958 323.68C742.539 319.902 740.977 316.883 745.394 313.698C751.104 314.642 756.514 313.794 755.196 305.989C753.719 300.595 746.019 296.115 741.632 293.577C729.549 286.587 710.139 282.064 696.251 281.772C682.481 281.483 665.027 286.205 651.886 289.85L651.324 289.504C651.37 289.279 651.417 289.054 651.463 288.83C654.724 283.315 648.648 275.795 641.927 275.619Z"/><path fill="#EDF6F6" fill-opacity="0.17254902" d="M614.731 290.387C623.356 284.694 632.455 279.753 641.927 275.619C648.648 275.795 654.724 283.315 651.463 288.83C651.417 289.054 651.37 289.279 651.324 289.504L651.886 289.85C651.044 290.158 650.392 290.429 649.522 290.646L648.163 289.329C648.06 288.563 647.946 287.867 647.819 287.106L646.817 286.783C644.889 288.002 644.138 288.887 643.591 291.217L644.377 291.51L645.589 292.06C643.072 293.182 640.204 294.584 637.595 295.348C635.482 294.099 627.679 294.43 625.297 295.383C625.575 297.769 629.214 297.776 627.731 299.309C626.511 300.57 621.661 302.295 619.81 303.025L619.45 302.723C620.54 301.582 620.649 301.514 621.963 300.625C620.867 299.535 619.083 297.468 617.731 297.036C616.124 299.311 617.517 301.823 615.616 304.644C612.288 306.078 614.744 302.787 612.066 305.529C611.659 307.459 610.919 308.554 610.482 310.202C598.124 318.443 586.46 327.681 575.608 337.824C575.406 337.19 575.598 337.432 575.051 337.089L572.242 338.139L572.149 337.262L572.064 338.133L572.221 337.295C572.11 336.482 570.97 334.494 570.55 333.334L571.095 332.885L570.261 332.44C579.336 319.385 596.178 304.497 608.638 294.878C608.697 295.799 608.717 295.798 608.917 296.69C610.192 296.182 610.492 295.551 611.497 294.456C613.844 293.997 615.856 293.798 617.323 292.013C615.151 291.459 615.942 292.046 614.731 290.387Z"/><path fill="#EDF6F6" fill-opacity="0.070588239" d="M776.871 436.702C785.253 430.99 789.39 439.292 785.327 445.638C783.781 445.34 783.637 445.552 782.029 445.87C779.902 447.368 779.33 449.123 780.515 451.453L779.208 452.505C775.444 449.402 777.785 444.795 769.064 444.353L770.661 442.382C772.751 443.123 775.016 443.12 776.847 441.889C777.642 440.069 777.333 438.816 776.871 436.702Z"/><path fill="#EDF6F6" fill-opacity="0.34117648" d="M795.322 375.088C795.967 380.207 794.335 390.776 788.32 391.998C786.61 391.764 785.633 390.916 784.74 389.488C784.311 382.753 793.657 379.157 795.322 375.088Z"/><path fill="#EDF6F6" fill-opacity="0.27450982" d="M772.702 356.072C773.224 353.567 772.771 353.941 774.258 352.292C776.327 351.741 775.331 351.704 777.354 352.406L778.064 353.418L777.783 354.241L776.213 354.783C778.101 355.342 779.784 355.852 781.705 356.28C780.129 358.007 780.469 357.069 780.117 358.995C781.253 362.609 782.645 362.642 782.692 365.365C781.491 366.836 781.54 366.777 779.907 367.764L778.986 367.793C777.947 367.831 778.326 367.739 777.739 367.923C776.053 363.559 774.74 360.272 772.702 356.072Z"/><path fill="#EDF6F6" fill-opacity="0.14901961" d="M621.963 300.625C620.649 301.514 620.54 301.582 619.45 302.723L619.81 303.025C621.661 302.295 626.511 300.57 627.731 299.309C629.214 297.776 625.575 297.769 625.297 295.383C627.679 294.43 635.482 294.099 637.595 295.348C628.846 299.706 618.709 305.017 610.482 310.202C610.919 308.554 611.659 307.459 612.066 305.529C614.744 302.787 612.288 306.078 615.616 304.644C617.517 301.823 616.124 299.311 617.731 297.036C619.083 297.468 620.867 299.535 621.963 300.625Z"/><path fill="#F4F9F8" fill-opacity="0.015686275" d="M560.879 345.104C565.019 348.364 562.4 346.512 566.256 347.631C561.523 352.934 550.358 364.858 547.189 370.338L546.938 370.297C546.659 369.128 548.982 365.555 549.765 364.101C550.185 363.59 552.665 358.749 553.145 357.848C555.634 353.174 557.784 349.436 560.879 345.104Z"/><path fill="#EDF6F6" fill-opacity="0.13725491" d="M572.221 337.295L572.064 338.133L572.149 337.262L572.242 338.139L575.051 337.089C575.598 337.432 575.406 337.19 575.608 337.824C574.675 338.8 566.675 347.358 566.256 347.631C562.4 346.512 565.019 348.364 560.879 345.104C562.576 342.598 563.6 341.121 565.579 338.803C567.701 338.082 570.009 337.722 572.221 337.295Z"/><path fill="#EDF6F6" fill-opacity="0.054901961" d="M784.044 282.286C793.496 288.412 809.834 301.465 815.381 311.338C814.826 311.299 792.066 286.186 787.706 286.523L786.964 288.016L786.129 288.201C781.977 285.162 783.445 285.37 784.044 282.286Z"/><path fill="#EDF6F6" fill-opacity="0.32941177" d="M767.259 446.868C768.314 447.127 767.835 447.075 768.709 447.068C768.983 448.015 768.911 447.552 768.956 448.451C770.824 449.706 774.241 451.318 775.206 452.628C775.85 453.503 775.583 453.39 776.494 453.943C769.199 457.09 761.734 454.298 767.259 446.868Z"/><path fill="#EDF6F6" fill-opacity="0.26666668" d="M769.064 444.353C777.785 444.795 775.444 449.402 779.208 452.505L776.494 453.943C775.583 453.39 775.85 453.503 775.206 452.628C774.241 451.318 770.824 449.706 768.956 448.451C768.911 447.552 768.983 448.015 768.709 447.068C767.835 447.075 768.314 447.127 767.259 446.868L769.064 444.353Z"/><path fill="#EDF6F6" fill-opacity="0.12941177" d="M751.114 329.993L752.589 329.139C753.492 329.438 753.948 329.571 754.905 329.695C756.074 326.787 758.6 322.935 762.216 325.447L762.019 326.268C759.194 327.689 757.245 328.357 758.708 332.279C757.099 332.808 756.49 332.879 754.861 333.116L751.114 329.993Z"/><path fill="#EDF6F6" fill-opacity="0.039215688" d="M755.514 269.195C760.818 270.431 769.387 273.893 774.037 276.767C770.054 276.399 769.298 278.419 767.343 277.598C767.91 276.711 767.973 276.566 768.363 275.585C767.19 273.368 759.143 270.39 756.99 271.303C755.745 273.455 756.366 274.937 755.906 277.677L755.183 277.084C754.887 275.169 755.527 272.96 755.925 271.012L755.364 270.288L755.514 269.195Z"/><path fill="#F4F9F8" fill-opacity="0.011764706" d="M776.871 436.702C777.333 438.816 777.642 440.069 776.847 441.889C775.016 443.12 772.751 443.123 770.661 442.382C772.411 440.045 774.473 438.322 776.871 436.702Z"/><path fill="#EDF6F6" fill-opacity="0.14509805" d="M816.967 390.201C819.295 391.938 820.936 394.552 820.022 397.528C818.886 398.662 819.528 398.4 818.165 398.796L817.676 397.788L817.159 398.048L816.967 390.201Z"/><path fill="#EDF6F6" d="M539.984 381.771C541.569 378.212 546.928 365.588 549.765 364.101C548.982 365.555 546.659 369.128 546.938 370.297L547.189 370.338C546.927 371.95 541.278 379.882 539.984 381.771Z"/><path fill="#EDF6F6" fill-opacity="0.039215688" d="M570.261 332.44L571.095 332.885L570.55 333.334C570.97 334.494 572.11 336.482 572.221 337.295C570.009 337.722 567.701 338.082 565.579 338.803C567.357 335.995 568.032 334.963 570.261 332.44Z"/><path fill="#EDF6F6" fill-opacity="0.11372549" d="M614.731 290.387C615.942 292.046 615.151 291.459 617.323 292.013C615.856 293.798 613.844 293.997 611.497 294.456C610.492 295.551 610.192 296.182 608.917 296.69C608.717 295.798 608.697 295.799 608.638 294.878L614.731 290.387Z"/><path fill="#EDF6F6" fill-opacity="0.015686275" d="M780.515 451.453C779.33 449.123 779.902 447.368 782.029 445.87C783.637 445.552 783.781 445.34 785.327 445.638C784.016 448.291 782.98 449.726 780.515 451.453Z"/><path fill="#EDF6F6" fill-opacity="0.1254902" d="M729.266 263.106L730.098 263.355C730.31 264.565 730.683 265.257 731.167 266.391C729.08 266.742 726.838 265.703 725.174 264.508L725.219 263.937C726.665 263.553 727.807 263.359 729.266 263.106Z"/><path fill="#EDF6F6" fill-opacity="0.14117648" d="M644.377 291.51L643.591 291.217C644.138 288.887 644.889 288.002 646.817 286.783L647.819 287.106C647.946 287.867 648.06 288.563 648.163 289.329C646.323 289.424 646.197 289.286 644.65 290.352C644.559 290.738 644.468 291.124 644.377 291.51Z"/><path fill="#EDF6F6" fill-opacity="0.094117649" d="M644.377 291.51C644.468 291.124 644.559 290.738 644.65 290.352C646.197 289.286 646.323 289.424 648.163 289.329L649.522 290.646L645.589 292.06L644.377 291.51Z"/><path fill="#2C3380" d="M136.796 267.308C148.775 266.8 164.443 267.325 176.81 267.351L263.936 267.352C281.458 267.38 303.352 267.895 320.534 266.998C331.109 293.554 343.428 320.8 354.757 347.173L394.803 440.987L417.661 494.102C419.377 498.139 426.308 513.773 427.298 517.346C430.404 522.254 436.58 538.914 438.688 544.513C435.187 554.33 432.013 564.426 428.257 574.129C412.079 615.92 382.059 663.794 332.53 666.915L165.522 332.859L144.274 290.202C142.008 285.693 134.117 271.481 133.497 267.94C134.711 267.087 135.021 267.384 136.796 267.308Z"/><path fill="#4251A3" d="M136.796 267.308C148.775 266.8 164.443 267.325 176.81 267.351L263.936 267.352C281.458 267.38 303.352 267.895 320.534 266.998C331.109 293.554 343.428 320.8 354.757 347.173L394.803 440.987L417.661 494.102C419.377 498.139 426.308 513.773 427.298 517.346C425.212 519.979 419.127 540.115 417.032 545.299C409.492 563.958 401.442 582.537 389.648 599.001C386.779 593.546 383.62 586.423 380.828 580.715L359.461 537.083L286.189 387.891L269.155 353.219C267.808 350.48 261.701 337.299 260.236 336.195C253.759 331.316 240.122 324.643 232.832 320.792L170.353 287.237C160.064 281.656 149.45 275.877 139.232 270.132C137.981 269.428 137.485 268.522 136.796 267.308Z"/><path fill="#73CEBD" d="M587.175 527.334C595.654 501.403 603.361 478.857 621.733 458.016C632.926 445.318 642.851 435.169 659.888 431.43C656.081 439.753 653.335 450.938 649.933 459.614C647.593 465.582 645.294 469.535 642.03 474.951C639.757 478.182 638.085 480.743 636.052 484.129C640.093 482.253 646.422 479.314 650.599 478.202C664.201 476.131 674.112 476.279 685.709 484.71C703.023 497.298 705.522 524.96 693.108 541.747C678.637 561.317 645.613 563.878 634.087 539.873C637.314 541.454 639.299 542.475 642.801 543.293C656.916 546.586 669.47 532.96 664.074 519.202C662.512 515.16 659.325 511.959 655.291 510.378C626.171 499.078 602.695 560.379 593.423 579.488C591.775 582.884 588.968 587.648 587.75 591.025C587.059 592.347 586.062 594.121 585.559 595.461C582.953 601.082 569.03 632.869 565.494 635.216L565.09 634.772C565.219 629.683 566.815 620.47 567.347 614.794C569.985 586.684 571.579 544.009 583.696 518.904L584.668 525.083L585.463 531.454L586.897 529.116L587.175 527.334Z"/><path fill="#EDF6F6" d="M586.897 529.116C586.735 531.297 586.779 531.678 586.022 533.678L585.221 534.367L584.761 533.716C584.967 532.868 585.035 532.119 585.463 531.454L586.897 529.116Z"/><path fill="#73CEBD" d="M873.448 357.743C877.109 359.794 881.023 367.965 882.665 371.978C893.259 397.87 894.669 425.426 884.581 451.696C881.539 459.619 876.087 464.847 868.334 467.979C851.68 468.72 848.84 454.715 854.76 441.968C857.899 435.209 861.915 428.98 865.252 422.299C871.934 408.925 874.813 393.207 874.86 378.328C874.799 371.675 873.71 364.53 873.448 357.743Z"/><path fill="#73CEBD" d="M818.776 261.029C839.226 265.121 905.428 300.931 886.749 326.96C880.758 331.287 870.671 330.565 867.154 325.025C857.169 309.293 849.756 292.61 837.448 278.14C834.096 274.199 819.96 263.689 818.776 261.029Z"/><path fill="#777778" fill-opacity="0.011764706" d="M636.052 484.129C638.085 480.743 639.757 478.182 642.03 474.951C642.327 477.391 641.892 477.177 643.255 478.557C646.429 479.313 647.485 475.537 650.599 478.202C646.422 479.314 640.093 482.253 636.052 484.129Z"/><defs><linearGradient id="gradient_0" gradientUnits="userSpaceOnUse" x1="734.42218" y1="547.10724" x2="731.77301" y2="545.35309"><stop offset="0" stop-color="#040206" stop-opacity="0"/><stop offset="1" stop-color="black" stop-opacity="0.05882353"/></linearGradient></defs><path fill="url(#gradient_0)" d="M732.906 542.723C734.009 543.475 733.927 543.672 734.722 544.903C734.669 547.232 733.668 546.899 733.37 549.266C730.713 548.634 733.586 546.504 732.906 542.723Z"/><path fill="#020103" fill-opacity="0.011764706" d="M862.196 413.647C863.617 414.906 864.082 415.695 864.513 417.512L863.716 417.624L862.174 416.208L861.021 416.914L860.125 416.366C860.596 415.892 860.94 415.567 861.448 415.118L861.932 414.697L861.422 413.883L862.196 413.647Z"/><path fill="#F4F9F8" fill-opacity="0.011764706" d="M584.668 525.083C585.742 526.237 585.91 526.4 587.175 527.334L586.897 529.116L585.463 531.454L584.668 525.083Z"/><defs><linearGradient id="gradient_1" gradientUnits="userSpaceOnUse" x1="497.08713" y1="405.82681" x2="494.28625" y2="406.57364"><stop offset="0" stop-color="black" stop-opacity="0"/><stop offset="1" stop-color="#030203" stop-opacity="0.031372551"/></linearGradient></defs><path fill="url(#gradient_1)" d="M495.04 404.978C496.424 404.67 495.755 404.628 497.058 405.331C497.699 407.17 497.548 407.198 497.075 409.034C496.356 406.777 496.878 407.467 495.236 405.908L494.503 405.723L495.04 404.978Z"/><path fill="#020103" fill-opacity="0.011764706" d="M106.736 908.124C108.548 908.207 108.496 907.66 109.9 908.452L109.789 910.54C107.977 910.38 107.307 909.744 106.736 908.124Z"/><path fill="#020103" fill-opacity="0.011764706" d="M632.124 60.8333C632.114 60.8103 633.16 63.8415 633.142 63.7526L632.098 64.0118L630.594 64.2766L630.395 63.5927L632.124 60.8333Z"/><path fill="#020103" fill-opacity="0.019607844" d="M1007.22 445.459C1009.7 445.927 1010.47 446.164 1012.02 448.007L1010.83 448.286C1008.81 447.486 1008.7 447.161 1007.22 445.459Z"/><path fill="#020103" fill-opacity="0.015686275" d="M124.487 368.843C126.922 368.592 127.031 368.547 129.292 369.329C127.034 370.01 126.337 370.48 124.487 368.843Z"/><path fill="#020103" fill-opacity="0.011764706" d="M624.003 961.735C625.312 962.891 625.033 963.534 625.508 965.691C624.683 965.66 625.127 965.746 624.202 965.325C624.196 963.874 624.147 963.139 624.003 961.735Z"/></svg>